Coordinates
version=1
nRows=6
nColumns=63
inDegrees=yes

Units are S.I. units (second, meters, Newtons, ...)
If the header above contains a line with 'inDegrees', this indicates whether rotational values are in degrees (yes) or radians (no).

endheader
time	pelvis_tilt	pelvis_list	pelvis_rotation	pelvis_tx	pelvis_ty	pelvis_tz	hip_flexion_r	hip_adduction_r	hip_rotation_r	knee_angle_r	knee_angle_r_beta	ankle_angle_r	subtalar_angle_r	mtp_angle_r	hip_flexion_l	hip_adduction_l	hip_rotation_l	knee_angle_l	knee_angle_l_beta	ankle_angle_l	subtalar_angle_l	mtp_angle_l	L5_S1_Flex_Ext	L5_S1_Lat_Bending	L5_S1_axial_rotation	L4_L5_Flex_Ext	L4_L5_Lat_Bending	L4_L5_axial_rotation	L3_L4_Flex_Ext	L3_L4_Lat_Bending	L3_L4_axial_rotation	L2_L3_Flex_Ext	L2_L3_Lat_Bending	L2_L3_axial_rotation	L1_L2_Flex_Ext	L1_L2_Lat_Bending	L1_L2_axial_rotation	L1_T12_Flex_Ext	L1_T12_Lat_Bending	L1_T12_axial_rotation	Abs_r3	Abs_r2	Abs_r1	Abs_t1	Abs_t2	neck_flexion	neck_bending	neck_rotation	arm_flex_r	arm_add_r	arm_rot_r	elbow_flex_r	pro_sup_r	wrist_flex_r	wrist_dev_r	arm_flex_l	arm_add_l	arm_rot_l	elbow_flex_l	pro_sup_l	wrist_flex_l	wrist_dev_l
      0.96666667	     -2.85078107	     -2.81772204	     70.45371320	      0.20667787	      0.87994395	      0.57942913	     13.52972633	      6.07736130	      3.88784354	     22.14162024	      0.38644417	     46.86320398	     -4.27886815	      0.00000000	      7.31178271	     -2.45725308	      0.85163917	     12.59061497	      0.21974769	     44.64720243	     -1.02509409	      0.00000000	      0.61551283	      0.72204167	     -0.93291901	      1.14306888	      0.96031543	     -0.99122645	      1.01122603	      1.75557213	     -0.99122645	      0.70346962	      1.75557213	     -0.81630413	      0.57156522	      1.47238738	     -0.75799670	      0.35170403	      1.11844255	     -0.69968926	      4.39654662	      8.16787983	     -5.18861566	      0.00000000	      0.00000000	     28.31121247	     10.62372830	     22.85703215	      5.47597245	    -25.01987957	     78.55957227	      9.31900730	      3.63086892	    -13.30345061	     -1.72801116	      3.15351733	    -12.44385596	     24.23631651	      6.53323404	     67.01301199	    -21.54745915	     -3.09768094
      0.98333333	     -2.62996650	     -2.37007022	     69.41911836	      0.20900404	      0.88093881	      0.57624997	     12.82011482	      6.27976344	      4.57208304	     22.09922974	      0.38570432	     47.65460666	     -2.80735377	      0.00000000	      5.97691476	     -2.43270378	      1.81426027	     11.88347563	      0.20740578	     44.22854684	     -3.14669715	      0.00000000	      0.57806192	      0.73128980	     -0.72401579	      1.07351879	      0.97261544	     -0.76926678	      0.94969793	      1.77805803	     -0.76926678	      0.66066697	      1.77805803	     -0.63351381	      0.53678830	      1.49124616	     -0.58826283	      0.33030458	      1.13276790	     -0.54301184	      4.12903848	      8.27249650	     -4.02675861	      0.00000000	      0.00000000	     28.31026719	      9.41857664	     20.91325656	      3.04735365	    -25.44683162	     69.06427561	     10.39194953	      4.45049147	    -14.97300964	     -2.07596962	      2.41567949	    -12.22453940	     24.42154534	      6.38446079	     65.92204923	    -21.91553853	     -2.69080210
      1.00000000	     -2.44983201	     -1.98007681	     68.13812513	      0.21173955	      0.88169406	      0.57309445	     12.28541747	      6.44038601	      5.15956554	     22.16514018	      0.38685468	     48.49092149	     -0.77755118	      0.00000000	      4.53655449	     -2.38043997	      2.68634703	     10.95269582	      0.19116060	     43.68188110	     -5.34669884	      0.00000000	      0.54186240	      0.74605456	     -0.49101083	      1.00629267	      0.99225257	     -0.52169901	      0.89022574	      1.81395706	     -0.52169901	      0.61929454	      1.81395706	     -0.42963448	      0.50317343	      1.52135446	     -0.39894630	      0.30962018	      1.15563852	     -0.36825812	      3.87046895	      8.43951842	     -2.73085494	      0.00000000	      0.00000000	     28.30535578	      8.53649377	     19.83343661	      0.94053188	    -25.65289716	     61.66447148	     11.16307808	      4.24804646	    -15.74764685	     -2.32158177	      1.59471503	    -11.86582050	     23.94050229	      6.08429231	     65.05406798	    -22.44547238	     -2.31107801
      1.01666667	     -1.91434604	     -1.77063488	     67.37332382	      0.21383306	      0.88235958	      0.57008904	     11.67103403	      7.05191048	      5.92482939	     21.94073026	      0.38293798	     48.85353342	      0.33881264	      0.00000000	      3.63296823	     -2.85334759	      2.67420662	     10.78843292	      0.18829368	     43.75430793	     -5.79014689	      0.00000000	      0.49777533	      0.80821687	     -0.41079649	      0.92441857	      1.07492844	     -0.43647128	      0.81779509	      1.96509850	     -0.43647128	      0.56890742	      1.96509850	     -0.35944693	      0.46223417	      1.64811584	     -0.33377215	      0.28442882	      1.25192793	     -0.30809737	      3.55555940	      9.14271087	     -2.28472686	      0.00000000	      0.00000000	     28.29920846	      8.20494031	     19.87093863	     -0.10569051	    -25.57029767	     60.03806181	     10.59842201	      3.52288182	    -16.01268309	     -0.77886381	      0.81023293	    -11.37337999	     23.24817140	      5.54015001	     64.48165704	    -22.55088077	     -1.45311210
      1.03333333	     -1.69871334	     -1.38529170	     66.01614516	      0.21644102	      0.88270014	      0.56649773	     11.13214742	      7.10858635	      6.13587349	     22.08540560	      0.38546304	     49.51420329	      2.80137564	      0.00000000	      1.91911435	     -2.52784238	      6.46068629	      9.44517582	      0.16484942	     42.45931220	    -11.52402394	      0.00000000	      0.46420351	      0.83486165	     -0.15034714	      0.86207234	      1.11036600	     -0.15974384	      0.76263995	      2.02988262	     -0.15974384	      0.53053819	      2.02988262	     -0.13155375	      0.43105938	      1.70244988	     -0.12215705	      0.26524589	      1.29320070	     -0.11276035	      3.31575925	      9.44412197	     -0.83618569	      0.00000000	      0.00000000	     28.30307066	      6.94782217	     18.48091619	     -3.21091580	    -25.64398835	     43.93047850	     13.26531060	      8.28586287	    -17.32390079	     -0.26611531	      0.23880453	    -10.56151591	     15.19042940	      4.78795914	     71.46304998	    -23.06154375	     -1.26199203
      1.05000000	     -1.44755401	     -1.17416589	     65.17935797	      0.21880447	      0.88259258	      0.56349446	     10.61323982	      7.42050923	      6.91347805	     22.02538695	      0.38441552	     49.68070847	      3.59021469	      0.00000000	      1.16600792	     -2.69385636	      6.22689206	      9.35509457	      0.16327720	     42.79882069	    -11.70269883	      0.00000000	      0.43944673	      0.86922746	     -0.07958437	      0.81609653	      1.15607253	     -0.08455839	      0.72196704	      2.11343966	     -0.08455839	      0.50224367	      2.11343966	     -0.06963632	      0.40807024	      1.77252864	     -0.06466230	      0.25109986	      1.34643334	     -0.05968828	      3.13892408	      9.83287492	     -0.44262439	      0.00000000	      0.00000000	     28.30312482	      6.60999803	     18.72432644	     -4.09457268	    -25.26106016	     43.44290788	     12.66833468	      7.50884683	    -17.47796093	      1.45140945	     -0.46764100	    -10.21178765	     14.68517861	      4.07266259	     71.25570697	    -23.20819701	     -0.94216312
